/* XPM */
static char *curator[] = {
/* columns rows colors chars-per-pixel */
"32 32 15 1 ",
"  c #1F1F1F",
". c #202020",
"X c #C1B46C",
"o c #C1B46D",
"O c #C1B56D",
"+ c #C2B46C",
"@ c #C2B46D",
"# c #C3B46D",
"$ c #C2B56D",
"% c #C2B46E",
"& c #C2B56E",
"* c #E8E8E8",
"= c #E9E9E9",
"- c #EAEAEA",
"; c None",
/* pixels */
";;;;;;;;;;;;;;;;;;;;;;;;;;;;;;;;",
";;;;;;;;;;;;;;;;;;;;;;;;;;;;;;;;",
";;;;;;;;;;;;;;;;;;;;;;;;;;;;;;;;",
";;;;;;;;;;;;;;;;;;;;;;;;;;;;;;;;",
";;;;;;;;;;;;;;;;;;;;;;;;;;;;;;;;",
";;;;;;;;;;;;;==========;;;;;;;;;",
";;;;;;;;;=================;;;;;;",
";;;;;;;=====;;;;;;;;;;;;=====;;;",
";;;;;====;;;;;;;;;;;;;;;;;;-=;;;",
";;;;===;;;;;;;;;;;;;;;;;;;;;;;;;",
";;;==;;;;;;;;;;@@@@@;;;;;;;;;;;;",
";;==;;;;;;;;;@@@;;;@@;;;;;;;;;;;",
";==;;;;;;;;;;@@;;;;;@@;;;;;;;;;;",
";==;;;;;;;;;@@;;;;;;;@@;;;;;;;;;",
";=;;;;;;;;;;@;;.  .;;@@;;;;;;;;;",
";=;;;;;;;;;;@;;  ..;;;@;;;;;;;;;",
"==;;;;;;;;;;@;;.   ;;;;;;;;;;;;;",
";=;;;;;;;;;;@;;.   ;;;;;;;;;;;;;",
";=;;;;;;;;;;@@;.  .;;;;;;;;;;;;;",
";==;;;;;;;;;@@;;;;;;;;;;;;;;;;;;",
";;==;;;;;;;;;&&;;;;@@@;;;;;;;;;;",
";;;==;;;;;;;;;&&@@@@@;;;;;;;;;;;",
";;;===;;;;;;;;;;@@@;;;;;;;;;;;;;",
";;;;;===;;;;;;;;;;;;;;;;;;;;==;;",
";;;;;;=====;;;;;;;;;;;;;;====;;;",
";;;;;;;;========;;;;=======;;;;;",
";;;;;;;;;;;=============;;;;;;;;",
";;;;;;;;;;;;;;;;;;;;;;;;;;;;;;;;",
";;;;;;;;;;;;;;;;;;;;;;;;;;;;;;;;",
";;;;;;;;;;;;;;;;;;;;;;;;;;;;;;;;",
";;;;;;;;;;;;;;;;;;;;;;;;;;;;;;;;",
";;;;;;;;;;;;;;;;;;;;;;;;;;;;;;;;"
};
